<svg width="24" height="26" viewBox="0 0 24 26" fill="none" xmlns="http://www.w3.org/2000/svg">
<path d="M12 0C7.43147 0 3.62109 3.68012 3.62109 8.37891C3.62109 10.1665 4.15826 11.7605 5.18917 13.2542L11.3588 22.8813C11.6581 23.3493 12.3425 23.3484 12.6412 22.8813L18.8376 13.2215C19.8463 11.7955 20.3789 10.1211 20.3789 8.37891C20.3789 3.75878 16.6201 0 12 0ZM12 12.1875C9.90004 12.1875 8.19141 10.4789 8.19141 8.37891C8.19141 6.27895 9.90004 4.57031 12 4.57031C14.1 4.57031 15.8086 6.27895 15.8086 8.37891C15.8086 10.4789 14.1 12.1875 12 12.1875Z" fill="#CD06FF"/>
<path d="M17.9548 17.504L14.1193 23.5006C13.1264 25.0485 10.868 25.0435 9.87998 23.5021L6.03818 17.5056C2.65798 18.2871 0.574219 19.7188 0.574219 21.4297C0.574219 24.3984 6.46119 26 12 26C17.5388 26 23.4258 24.3984 23.4258 21.4297C23.4258 19.7176 21.3391 18.2851 17.9548 17.504Z" fill="#CD06FF"/>
</svg>
