<svg width="21" height="21" viewBox="0 0 21 21" fill="none" xmlns="http://www.w3.org/2000/svg">
<path d="M18.6667 9.91566H20.8333C20.8333 4.35816 16.6376 0.166748 11.0725 0.166748V2.33341C15.473 2.33341 18.6667 5.52166 18.6667 9.91566Z" fill="#CD06FF"/>
<path d="M11.0834 6.6666C13.3616 6.6666 14.3334 7.63835 14.3334 9.9166H16.5001C16.5001 6.42285 14.5771 4.49993 11.0834 4.49993V6.6666ZM14.7906 12.5632C14.5824 12.374 14.3089 12.2731 14.0277 12.2818C13.7465 12.2905 13.4797 12.4081 13.2836 12.6098L10.6912 15.2759C10.0672 15.1567 8.81273 14.7656 7.5214 13.4775C6.23006 12.1851 5.83898 10.9274 5.72306 10.3077L8.38698 7.71418C8.58892 7.51824 8.70671 7.25141 8.7154 6.97016C8.7241 6.68891 8.62302 6.41531 8.43356 6.20727L4.43065 1.80568C4.24111 1.59699 3.97768 1.4704 3.69631 1.4528C3.41494 1.4352 3.13779 1.52798 2.92373 1.71143L0.572895 3.72752C0.385598 3.91549 0.273808 4.16567 0.258728 4.4306C0.242478 4.70143 -0.0673552 11.1169 4.90731 16.0938C9.24715 20.4325 14.6833 20.7499 16.1805 20.7499C16.3993 20.7499 16.5336 20.7434 16.5694 20.7413C16.8343 20.7264 17.0843 20.6142 17.2714 20.426L19.2864 18.0741C19.47 17.8602 19.5629 17.5831 19.5456 17.3017C19.5282 17.0204 19.4018 16.7569 19.1932 16.5672L14.7906 12.5632V12.5632Z" fill="#CD06FF"/>
</svg>
